{"title":"Wall.Street.Money.Never.Sleeps.2010.iNTERNAL.DVDRip.XviD-EXViDiN","uid":6948855,"size":1478549873,"categoryP":"video","categoryS":"movies","magnet":"?xt=urn:btih:cfa0029afaeb2ea22423f010c70d905d576be291&amp;dn=Wall.Street.Money.Never.Sleeps.2010.iNTERNAL.DVDRip.XviD-EXViDiN&amp;tr=udp%3A%2F%2Ftracker.openbittorrent.com%3A80&amp;tr=udp%3A%2F%2Fopen.demonii.com%3A1337&amp;tr=udp%3A%2F%2Ftracker.coppersurfer.tk%3A6969&amp;tr=udp%3A%2F%2Fexodus.desync.com%3A6969","seeders":1,"leechers":0,"uploader":"TvTeam","files":8,"time":1326327005,"description":". \n &lt;a href=&quot;\nhttp://www.torrenting.com&quot; rel=&quot;nofollow&quot; target=&quot;_NEW&quot;&gt;\nhttp://www.torrenting.com&lt;/a&gt;          :     Once &amp; For all ;)\n\n\n               www . Torrenting . Com \n\n(((((((((((((= Enjoy No RAR releases =))))))))))))))))))))\n\n\n...................................NFO:....................................\n\n.                                                                                                     \n       \n     \n     \n       \n       \n     \n     \n                                         \n                                         \n                EXVID                    \n                                         \n         \n                                         \n         Filled the Archives             \n                                         \n         \n                                         \n                With:                    \n                                         \n         \n                                         \n                                    \n     E240                           \n                                    \n     SP               (C) 2009      \n                                         \n     \n     \n     \n                                                                                  \n                                                                                   \n    Wall.Street.Money.Never.Sleeps.2010.iNTERNAL.DVDRip.XviD-EXViDiNT               \n                                                                                   \n                                                                                  \n     \n                                                                                               \nEXViD aims to iNTERNAL those releases which have been lost in the archives.\nEXViD aims to PRE non-internal releases which have poor sources and are likely skipped by others. &lt;a href=&quot;\nhttp://www.imdb.com/title/tt1027718/&quot; rel=&quot;nofollow&quot; target=&quot;_NEW&quot;&gt;\nhttp://www.imdb.com/title/tt1027718/&lt;/a&gt;\nSubtitles: EN, EN HI, FR, IT, NL, ES\nDate: 2012.01\n\nDirector: Oliver Stone\n\nGenres: Drama\n\nPlot:\nAs the global economy teeters on the brink of disaster, a young Wall Street trader partners\nwith disgraced former Wall Street corporate raider Gordon Gekko on a two-tiered mission: To alert\nthe financial community to the coming doom, and to find out who was responsible for the death\nof the young trader's mentor. \n\nCast:\nRichard Stratton \t ... \tPrison Cage Guard \nHarry Kerrigan \t ... \tPrison Guard \nMichael Douglas \t ... \tGordon Gekko \nCarey Mulligan \t ... \tWinnie Gekko \nShia LaBeouf \t ... \tJake Moore \nSunil Hirani \t ... \t Himself \nMaria Bartiromo \t ... \t News Host \nAustin Pendleton \t ... \tDr. Masters \nThomas Belesis \t ... \tZabel Trader \nFrank Langella \t ... \tLouis Zabel \nEric Purcell \t ... \t Jeweler \nChristian Baha \t ... \t Hedge Fund Chief \nJohn Buffalo Mailer \t ... \tRobby \nMelissa Lee \t ... \tNewscaster \nAnnika Pergament \t ... \t Reporter\n\nStats:\nFormat                           : AVI\nFormat/Info                      : Audio Video Interleave\nFile size                        : 1.37 GiB\nDuration                         : 2h 7mn\nOverall bit rate                 : 1 535 Kbps\nWriting application              : VirtualDubMod 1.5.10.2 (build 2540/release)\nWriting library                  : VirtualDubMod build 2540/release\n\nVideo\nID                               : 0\nFormat                           : MPEG-4 Visual\nFormat profile                   : Advanced Simple@L5\nFormat settings, BVOP            : Yes\nFormat settings, QPel            : No\nFormat settings, GMC             : No warppoints\nFormat settings, Matrix          : Default (H.263)\nMuxing mode                      : Packed bitstream\nCodec ID                         : XVID\nCodec ID/Hint                    : XviD\nDuration                         : 2h 7mn\nBit rate                         : 1 077 Kbps\nWidth                            : 640 pixels\nHeight                           : 272 pixels\nDisplay aspect ratio             : 2.35:1\nFrame rate                       : 25.000 fps\nColor space                      : YUV\nChroma subsampling               : 4:2:0\nBit depth                        : 8 bits\nScan type                        : Progressive\nBits/(Pixel*Frame)               : 0.248\nStream size                      : 983 MiB (70%)\nWriting library                  : XviD 62\n\nAudio\nID                               : 1\nFormat                           : AC-3\nFormat/Info                      : Audio Coding 3\nMode extension                   : CM (complete main)\nCodec ID                         : 2000\nDuration                         : 2h 7mn\nBit rate mode                    : Constant\nBit rate                         : 448 Kbps\nChannel(s)                       : 6 channels\nChannel positions                : Front: L C R, Side: L R, LFE\nSampling rate                    : 48.0 KHz\nBit depth                        : 16 bits\nStream size                      : 409 MiB (29%)\nAlignment                        : Split accross interleaves\nInterleave, duration             : 40 ms (1.00 video frame)\nInterleave, preload duration     : 500 ms\n\n\n\n\nRelease notes:\nenjoy!\n\nLooking for:\n75TB+ Archives\nDUTCH/FLEMiSH Archives\n                                                                                                    \nGreets: CRBS EPiSODE FiCO FLS iLS KLASSiGER LiPSYNC MADE NODLABS RUNNER SPRiNTER      \n   \n\n                                                                    ASCII DONE BY XX^NFO 2oo9","torrent":{"xt":"urn:btih:cfa0029afaeb2ea22423f010c70d905d576be291","amp;dn":"Wall.Street.Money.Never.Sleeps.2010.iNTERNAL.DVDRip.XviD-EXViDiN","amp;tr":["udp%3A%2F%2Ftracker.openbittorrent.com%3A80","udp%3A%2F%2Fopen.demonii.com%3A1337","udp%3A%2F%2Ftracker.coppersurfer.tk%3A6969","udp%3A%2F%2Fexodus.desync.com%3A6969"],"infoHash":"cfa0029afaeb2ea22423f010c70d905d576be291","infoHashBuffer":{"type":"Buffer","data":[207,160,2,154,250,235,46,162,36,35,240,16,199,13,144,93,87,107,226,145]},"announce":[],"urlList":[]}}